<svg xmlns="http://www.w3.org/2000/svg" fill="none" viewBox="0 0 2854 2854">
  <mask id="a" width="2854" height="2854" x="0" y="0" maskUnits="userSpaceOnUse" style="mask-type:alpha">
    <circle cx="1427" cy="1427" r="1427" fill="#C4C4C4"/>
  </mask>
  <g mask="url(#a)">
    <path fill="url(#b)" d="M3351-313H-498v3480.04h3849V-313Z"/>
    <path fill="#fff" fill-rule="evenodd" d="M543 785.6c138.837 26.901 217.616 109.138 241.537 241.6-2.462-137.201 79.15-217.068 241.533-241.6-146.358-15.472-224.161-98.824-241.533-241.6C767.723 681.851 692.939 767.666 543 785.6Zm1227.54 1028.55-52.67 140.51-432.48-126.28 43.73-150.69-330.462-131.2c105.352-128.74 210.702-191.97 374.182-272.23-14.58-252.74 189.46-433.817 432.47-612.26 193.15 237.105 278.66 447.51 146.61 742.75 109.39 118.55 156.28 308.94 154.52 486.86l-335.9-77.46Zm75.18-670.18c0 69.45-56.29 125.76-125.73 125.76-69.43 0-125.72-56.31-125.72-125.76s56.29-125.75 125.72-125.75c69.44 0 125.73 56.3 125.73 125.75Z" clip-rule="evenodd"/>
    <path fill="#fff" d="M1606.37 2246.91S1509 2830 1095 2978l-650-414c572.5 0 777.71-442.31 777.71-442.31l383.66 125.22Z"/>
  </g>
  <defs>
    <linearGradient id="b" x1="112.463" x2="2365.33" y1="3485.86" y2="-827.778" gradientUnits="userSpaceOnUse">
      <stop stop-color="#ED0A62"/>
      <stop offset="1" stop-color="#890CEA"/>
    </linearGradient>
  </defs>
</svg>
