<svg viewBox="0 0 1238.19 330.09" xmlns="http://www.w3.org/2000/svg"><linearGradient id="a" gradientUnits="userSpaceOnUse" x2="1238.19" y1="155.04" y2="155.04"><stop offset="0" stop-color="#ed0a62"/><stop offset="1" stop-color="#890cea"/></linearGradient><path d="M142.63 193.55c0 38.77-33.72 55.3-70.13 55.3-33.72 0-59.35-12.85-72.5-40.13l43.83-24.95c4.39 12.81 13.83 19.89 28.67 19.89 12.13 0 18.2-3.71 18.2-10.45 0-18.55-82.94-8.77-82.94-67.1 0-36.75 31-55.3 66.08-55.3 27.32 0 51.59 12.14 65.76 36.08l-43.16 23.27c-4.72-8.77-11.47-14.84-22.6-14.84-8.76 0-14.16 3.37-14.16 9.44 0 19.24 82.95 6.41 82.95 68.79zM226.93 124.09v59.68c0 14.5 12.48 15.85 34.73 14.5v45.86c-66.09 6.74-85.31-13.15-85.31-60.36v-59.68h-27V75.53h27v-32l50.58-15.18v47.18h34.73v48.56zM598.19 72.16v57.32c-20.91-3.37-50.58 5.06-50.58 38.44v76.21H497V75.53h50.58v30c6.77-22.53 29.36-33.37 50.61-33.37zM747.56 193.55c0 38.77-33.72 55.3-70.13 55.3-33.72 0-59.35-12.82-72.5-40.13l43.84-24.95c4.38 12.81 13.82 19.89 28.66 19.89 12.14 0 18.21-3.71 18.21-10.45 0-18.55-82.95-8.77-82.95-67.1 0-36.75 31-55.3 66.09-55.3 27.31 0 51.59 12.14 65.75 36.08l-43.16 23.27c-4.72-8.77-11.47-14.84-22.59-14.84-8.77 0-14.17 3.37-14.17 9.44 0 19.24 82.95 6.41 82.95 68.79zM934.71 140.61v103.52h-50.58V148c0-20.91-13.15-30.69-29.34-30.69-18.54 0-31.35 10.79-31.35 34.73v92.06h-50.58V8.09h50.58v83.29c9.1-12.48 26-20.57 48.21-20.57 34.06 0 63.06 24.28 63.06 69.8zM964.39 30.35a30.35 30.35 0 1 1 60.69 0 30.35 30.35 0 0 1-60.69 0zm5.05 45.18H1020v168.6h-50.56zM409.13 75.07v16.31c-11-12.82-27.54-20.57-50.13-20.57-44.17 0-80.53 38.78-80.53 89s36.33 89 80.5 89c22.59 0 39.16-7.76 50.16-20.57v14.79h51v-168zm-44.79 136.8c-5.15-28.52-22.11-46.22-52-52 32.29-3.86 48.39-22.33 52-52 3.74 30.74 20.49 48.67 52 52-34.96 5.27-52.53 22.47-52 52zM1157.65 70.81c-22.59 0-39.52 7.75-50.52 20.57V75.07h-49v235h5.49c15.56-4 30.51-9.85 43.51-18.19v-63.6c15-5.76 27.63-14.81 36.33-26.58l21.82 7.13c-2.19 13-9.56 29.45-17.65 39.46a90.13 90.13 0 0 0 9.92.56c44.17 0 80.64-38.78 80.64-89s-36.37-89.04-80.54-89.04zm17 113.37l-3 8L1147 185l2.49-8.58-18.82-7.42c6-7.33 12-10.92 21.31-15.49-.83-14.39 10.79-24.71 24.63-34.87 11 13.5 15.87 25.48 8.35 42.29 6.23 6.75 8.9 17.6 8.8 27.72z" fill="#890cea"/><circle cx="1172.01" cy="145.53" fill="#890cea" r="7.16"/><path d="M142.63 193.55c0 38.77-33.72 55.3-70.13 55.3-33.72 0-59.35-12.85-72.5-40.13l43.83-24.95c4.39 12.81 13.83 19.89 28.67 19.89 12.13 0 18.2-3.71 18.2-10.45 0-18.55-82.94-8.77-82.94-67.1 0-36.75 31-55.3 66.08-55.3 27.32 0 51.59 12.14 65.76 36.08l-43.16 23.27c-4.72-8.77-11.47-14.84-22.6-14.84-8.76 0-14.16 3.37-14.16 9.44 0 19.24 82.95 6.41 82.95 68.79zM226.93 124.09v59.68c0 14.5 12.48 15.85 34.73 14.5v45.86c-66.09 6.74-85.31-13.15-85.31-60.36v-59.68h-27V75.53h27v-32l50.58-15.18v47.18h34.73v48.56zM598.19 72.16v57.32c-20.91-3.37-50.58 5.06-50.58 38.44v76.21H497V75.53h50.58v30c6.77-22.53 29.36-33.37 50.61-33.37zM747.56 193.55c0 38.77-33.72 55.3-70.13 55.3-33.72 0-59.35-12.82-72.5-40.13l43.84-24.95c4.38 12.81 13.82 19.89 28.66 19.89 12.14 0 18.21-3.71 18.21-10.45 0-18.55-82.95-8.77-82.95-67.1 0-36.75 31-55.3 66.09-55.3 27.31 0 51.59 12.14 65.75 36.08l-43.16 23.27c-4.72-8.77-11.47-14.84-22.59-14.84-8.77 0-14.17 3.37-14.17 9.44 0 19.24 82.95 6.41 82.95 68.79zM934.71 140.61v103.52h-50.58V148c0-20.91-13.15-30.69-29.34-30.69-18.54 0-31.35 10.79-31.35 34.73v92.06h-50.58V8.09h50.58v83.29c9.1-12.48 26-20.57 48.21-20.57 34.06 0 63.06 24.28 63.06 69.8zM964.39 30.35a30.35 30.35 0 1 1 60.69 0 30.35 30.35 0 0 1-60.69 0zm5.05 45.18H1020v168.6h-50.56zM409.13 75.07v16.31c-11-12.82-27.54-20.57-50.13-20.57-44.17 0-80.53 38.78-80.53 89s36.33 89 80.5 89c22.59 0 39.16-7.76 50.16-20.57v14.79h51v-168zm-44.79 136.8c-5.15-28.52-22.11-46.22-52-52 32.29-3.86 48.39-22.33 52-52 3.74 30.74 20.49 48.67 52 52-34.96 5.27-52.53 22.47-52 52zM1157.65 70.81c-22.59 0-39.52 7.75-50.52 20.57V75.07h-49v235h5.49c15.56-4 30.51-9.85 43.51-18.19v-63.6c15-5.76 27.63-14.81 36.33-26.58l21.82 7.13c-2.19 13-9.56 29.45-17.65 39.46a90.13 90.13 0 0 0 9.92.56c44.17 0 80.64-38.78 80.64-89s-36.37-89.04-80.54-89.04zm17 113.37l-3 8L1147 185l2.49-8.58-18.82-7.42c6-7.33 12-10.92 21.31-15.49-.83-14.39 10.79-24.71 24.63-34.87 11 13.5 15.87 25.48 8.35 42.29 6.23 6.75 8.9 17.6 8.8 27.72z" fill="url(#a)"/><circle cx="1172.01" cy="145.53" fill="url(#a)" r="7.16"/><g fill="#890cea"><path d="M9 303c0-15 11.32-27.08 27.3-27.08a25.65 25.65 0 0 1 22.5 12.6l-3.53 2c-3.45-6.45-10.72-10.8-19-10.8-13.8 0-23.33 10.35-23.33 23.25s9.53 23.25 23.33 23.25c8.32 0 15.67-4.43 19.12-11l3.53 2a25.65 25.65 0 0 1-22.65 12.82C20.28 330.09 9 318 9 303zM102.11 307.74H85.53v21.53h-4v-52.5h20.7a15.48 15.48 0 0 1 4 30.45l13 22h-4.57zM85.53 304h16.73a11.74 11.74 0 0 0 0-23.47H85.53zM137.81 303a27.07 27.07 0 1 1 27.07 27.07A26.92 26.92 0 0 1 137.81 303zm50.19 0a23.1 23.1 0 1 0-23.1 23.25A23 23 0 0 0 188 303zM210.26 317.72l3.45-2c1.8 6.3 7.12 10.58 15.75 10.58s13.2-4.5 13.2-10.5c0-6.3-5.55-8.7-13.58-11.25-8.77-2.85-16.65-5.33-16.65-14.48 0-8.62 7-14.1 15.9-14.1a17.64 17.64 0 0 1 16.88 11l-3.38 1.88c-2-4.73-6-9.08-13.5-9.08-7.27 0-11.85 4.27-11.85 10.12 0 6.3 5.33 8.25 12.83 10.73 9.3 3.07 17.4 6 17.4 15.07 0 8.7-6.83 14.4-17.25 14.4-9.83 0-16.8-4.95-19.2-12.37zM264.71 317.72l3.45-2c1.8 6.3 7.12 10.58 15.75 10.58s13.2-4.5 13.2-10.5c0-6.3-5.55-8.7-13.58-11.25-8.77-2.85-16.65-5.33-16.65-14.48 0-8.62 7-14.1 15.9-14.1a17.64 17.64 0 0 1 16.88 11l-3.38 1.88c-1.95-4.73-6-9.08-13.5-9.08-7.27 0-11.85 4.27-11.85 10.12 0 6.3 5.33 8.25 12.83 10.73 9.3 3.07 17.4 6 17.4 15.07 0 8.7-6.83 14.4-17.25 14.4-9.83 0-16.8-4.95-19.2-12.37zM323.43 304.29h27v3.6h-27zM372.78 317.72l3.45-2c1.8 6.3 7.13 10.58 15.75 10.58s13.2-4.5 13.2-10.5c0-6.3-5.55-8.7-13.57-11.25-8.78-2.88-16.61-5.36-16.61-14.55 0-8.62 7-14.1 15.9-14.1a17.64 17.64 0 0 1 16.87 11l-3.38 1.88c-2-4.73-6-9.08-13.49-9.08-7.28 0-11.85 4.27-11.85 10.12 0 6.3 5.32 8.25 12.82 10.73 9.3 3.07 17.4 6 17.4 15.07 0 8.7-6.83 14.4-17.25 14.4-9.86.07-16.84-4.88-19.24-12.3zM470.35 276.77v52.5h-4v-25.13h-30.49v25.13h-4v-52.5h4v23.62h30.52v-23.62zM526.9 325.52v3.75h-30.22v-52.5h29.85v3.75h-25.87v20.4h24v3.75h-24v20.85zM578.65 325.52v3.75h-28.72v-52.5h4v48.75zM628.9 325.52v3.75h-28.72v-52.5h4v48.75zM717.93 293c0 9.23-6.9 16.2-16.35 16.2H687.7v20h-4v-52.5h17.85a15.87 15.87 0 0 1 16.38 16.3zm-4 0c0-7.27-5.17-12.52-12.37-12.52H687.7v25h13.88A12 12 0 0 0 714 293zM761.58 307.74H745v21.53h-4v-52.5h20.7a15.48 15.48 0 0 1 4 30.45l13 22h-4.57zM745 304h16.73a11.74 11.74 0 0 0 0-23.47H745zM797.28 303a27.08 27.08 0 1 1 27.07 27.07A26.92 26.92 0 0 1 797.28 303zm50.17 0a23.1 23.1 0 1 0-23.1 23.25 23 23 0 0 0 23.1-23.25zM922.23 329.27h-4v-46.65l-19.42 32.25h-.68l-19.42-32.25v46.65h-4v-52.5h5l18.75 31.05 18.75-31.05h5zM982.75 293c0 9.23-6.9 16.2-16.35 16.2h-13.87v20h-4v-52.5h17.87a15.87 15.87 0 0 1 16.35 16.3zm-4 0c0-7.27-5.18-12.52-12.38-12.52h-13.84v25h13.87A12 12 0 0 0 978.78 293zM1036.6 280.52h-16.5v48.75h-4.05v-48.75h-16.5v-3.75h37z"/></g></svg>